HIERARCHY
ROOT Hips
{
	OFFSET 0.00000 0.00000 0.00000
	CHANNELS 6 Xposition Yposition Zposition Zrotation Yrotation Xrotation 
	JOINT LHipJoint
	{
		OFFSET 0 0 0
		CHANNELS 3 Zrotation Yrotation Xrotation
		JOINT LeftHip
		{
			OFFSET 1.39187 -1.60231 0.69152
			CHANNELS 3 Zrotation Yrotation Xrotation
			JOINT LeftKnee
			{
				OFFSET 2.43314 -6.68499 0.00000
				CHANNELS 3 Zrotation Yrotation Xrotation
				JOINT LeftAnkle
				{
					OFFSET 2.32059 -6.37578 0.00000
					CHANNELS 3 Zrotation Yrotation Xrotation
					JOINT LeftToe
					{
						OFFSET 0.23021 -0.63250 1.71305
						CHANNELS 3 Zrotation Yrotation Xrotation
						End Site
						{
							OFFSET 0.00000 -0.00000 0.91647
						}
					}
				}
			}
		}
	}
	JOINT RHipJoint
	{
		OFFSET 0 0 0
		CHANNELS 3 Zrotation Yrotation Xrotation
		JOINT RightHip
		{
			OFFSET -1.19407 -1.60231 0.69152
			CHANNELS 3 Zrotation Yrotation Xrotation
			JOINT RightKnee
			{
				OFFSET -2.44411 -6.71513 0.00000
				CHANNELS 3 Zrotation Yrotation Xrotation
				JOINT RightAnkle
				{
					OFFSET -2.31924 -6.37207 0.00000
					CHANNELS 3 Zrotation Yrotation Xrotation
					JOINT RightToe
					{
						OFFSET -0.19473 -0.53502 1.87724
						CHANNELS 3 Zrotation Yrotation Xrotation
						End Site
						{
							OFFSET -0.00000 -0.00000 0.98293
						}
					}
				}
			}
		}
	}
	JOINT lowerback
	{
		OFFSET 0 0 0
		CHANNELS 3 Zrotation Yrotation Xrotation
		JOINT Chest
		{
			OFFSET -0.01120 1.87307 0.09613
			CHANNELS 3 Zrotation Yrotation Xrotation
			JOINT Chest2
			{
				OFFSET 0.01099 1.87818 0.04834
				CHANNELS 3 Zrotation Yrotation Xrotation
				JOINT lowerneck
				{
					OFFSET 0 0 0
					CHANNELS 3 Zrotation Yrotation Xrotation
					JOINT Neck
					{
						OFFSET 0.01702 1.40324 -0.12579
						CHANNELS 3 Zrotation Yrotation Xrotation
						JOINT Head
						{
							OFFSET -0.04239 1.38587 -0.01614
							CHANNELS 3 Zrotation Yrotation Xrotation
							End Site
							{
								OFFSET -0.02510 1.47031 -0.00154
							}
						}
					}
				}
				JOINT LeftCollar
				{
					OFFSET 0 0 0
					CHANNELS 3 Zrotation Yrotation Xrotation
					JOINT LeftShoulder
					{
						OFFSET 2.95699 0.62343 0.11653
CHANNELS 3 Zrotation Xrotation Yrotation
						JOINT LeftElbow
						{
OFFSET 0 -4.683820 -0.000000
CHANNELS 3 Zrotation Xrotation Yrotation
							JOINT LeftWrist
							{
OFFSET 0 -2.981240 -0.000000
CHANNELS 3 Zrotation Xrotation Yrotation
								JOINT lhand
								{
									OFFSET 0 0 0
CHANNELS 3 Zrotation Xrotation Yrotation
									JOINT LFingers
									{
OFFSET 0 -0.707590 0.000000
CHANNELS 3 Zrotation Xrotation Yrotation
										End Site
										{
OFFSET 0 -0.570480 0.000000
										}
									}
								}
								JOINT LThumb
								{
OFFSET 0 0.000000 0.000000
CHANNELS 3 Zrotation Xrotation Yrotation
									End Site
									{
OFFSET 0 -0.579190 0.579190
									}
								}
							}
						}
					}
				}
				JOINT RightCollar
				{
					OFFSET 0 0 0
					CHANNELS 3 Zrotation Yrotation Xrotation
					JOINT RightShoulder
					{
						OFFSET -2.99027 0.88714 -0.02793
CHANNELS 3 Zrotation Xrotation Yrotation
						JOINT RightElbow
						{
OFFSET 0 -4.758760 -0.000000
CHANNELS 3 Zrotation Xrotation Yrotation
							JOINT RightWrist
							{
OFFSET 0 -2.932930 -0.000000
CHANNELS 3 Zrotation Xrotation Yrotation
								JOINT rhand
								{
									OFFSET 0 0 0
CHANNELS 3 Zrotation Xrotation Yrotation
									JOINT RFingers
									{
OFFSET 0 -0.831750 0.000000
CHANNELS 3 Zrotation Xrotation Yrotation
										End Site
										{
OFFSET 0 -0.670580 0.000000
										}
									}
								}
								JOINT RThumb
								{
OFFSET 0 0.000000 0.000000
CHANNELS 3 Zrotation Xrotation Yrotation
									End Site
									{
OFFSET 0 -0.680820 0.680820
									}
								}
							}
						}
					}
				}
			}
		}
	}
}
MOTION
Frames: 6
Frame Time: 0.008333333333333333
21.398721 16.644285 -4.793827 -181.961613 -3.876426 -149.342803 0.000000 0.000000 0.000000 -21.307605 -11.377530 -10.613369 1.372838 7.415013 20.951032 -0.103830 -6.975952 -1.731557 0.231252 -3.095003 -8.543297 0.000000 0.000000 0.000000 14.053670 20.356843 -39.981616 -1.842026 -8.528879 24.332370 -0.085073 -7.066886 -11.858203 -0.055296 1.516680 -4.171681 -1.879948 -2.043842 -12.601015 1.742749 -3.160423 -5.433828 2.428316 -1.808029 1.551663 -7.840060 0.183662 -0.720638 5.328692 1.060473 -10.735405 3.154569 0.874187 -3.477354 0.000000 0.000000 0.000000 157.175240 -61.570570 82.217497 17.316171 -27.272670 4.231206 43.504020 48.620230 -23.753126 0.000000 0.000000 0.000000 -7.125000 0.000000 0.000000 17.390576 60.380262 -6.641089 0.000000 0.000000 0.000000 -154.113570 -64.772227 -75.875637 -23.288157 -34.402393 -7.300472 -39.401974 -2.958205 -20.615187 0.000000 0.000000 0.000000 7.125000 0.000000 0.000000 -6.750507 4.175902 -6.285648
21.389720 16.623413 -4.813444 -181.805846 -3.380301 -148.906371 0.000000 0.000000 0.000000 -21.365606 -11.144099 -10.836005 1.323309 7.285303 20.563292 -0.094743 -6.933961 -2.040202 0.234167 -3.114484 -8.597726 0.000000 0.000000 0.000000 14.077285 20.427941 -40.825035 -1.926722 -8.711680 24.897403 -0.131483 -6.394976 -11.942211 -0.076383 1.782819 -4.905789 -1.629438 -2.026544 -12.422817 1.616392 -3.151903 -5.366010 2.162759 -1.802440 1.507841 -7.193742 0.147580 -1.285726 5.270169 1.133958 -11.069198 3.008586 0.923803 -3.479253 0.000000 0.000000 0.000000 158.625817 -60.490310 84.451338 16.647504 -26.390754 3.929381 43.756599 49.302346 -23.372504 0.000000 0.000000 0.000000 -7.125000 0.000000 0.000000 17.673677 59.996904 -6.590936 0.000000 0.000000 0.000000 -157.436661 -64.102237 -80.157249 -22.150697 -33.146868 -6.668142 -40.014863 -3.349322 -20.663850 0.000000 0.000000 0.000000 7.125000 0.000000 0.000000 -7.112892 3.935519 -6.660353
21.380647 16.602461 -4.833046 -181.666604 -2.755264 -148.452683 0.000000 0.000000 0.000000 -21.495813 -10.713151 -11.176641 1.297540 7.216854 20.359257 -0.084181 -6.963327 -2.468988 0.255757 -3.253183 -8.984385 0.000000 0.000000 0.000000 14.111385 20.403413 -41.674306 -2.008357 -8.883468 25.431609 -0.201578 -5.505442 -12.268272 -0.069434 1.700179 -4.677648 -1.839597 -2.043071 -12.088473 1.918217 -3.147463 -5.301541 2.607551 -1.788752 1.420756 -7.412196 0.387168 -1.385739 4.980607 1.527667 -11.798498 2.945639 1.178824 -3.744994 0.000000 0.000000 0.000000 159.543636 -59.330654 87.318398 15.900262 -25.385159 3.603099 44.209115 50.528201 -22.684460 0.000000 0.000000 0.000000 -7.125000 0.000000 0.000000 18.162149 59.297277 -6.474779 0.000000 0.000000 0.000000 -160.810255 -63.226104 -84.058093 -21.232837 -32.098989 -6.173236 -40.308837 -2.843166 -20.822015 0.000000 0.000000 0.000000 7.125000 0.000000 0.000000 -7.258408 3.656355 -6.836783
21.367596 16.581586 -4.858834 -181.345902 -2.137339 -148.061967 0.000000 0.000000 0.000000 -21.512842 -10.620215 -11.375497 1.281673 7.174204 20.232485 -0.055665 -6.526214 -2.960094 0.306015 -3.555498 -9.829622 0.000000 0.000000 0.000000 14.446585 20.326909 -42.358012 -2.061685 -8.993406 25.774724 -0.248272 -4.791811 -12.407218 -0.138631 2.397859 -6.606570 -1.327731 -1.979982 -11.612082 1.808101 -3.106633 -5.279713 2.230090 -1.767902 1.154602 -7.484626 0.471935 -2.199775 5.410319 1.779254 -11.676226 3.099949 1.317213 -3.575295 0.000000 0.000000 0.000000 160.527761 -58.126903 89.126336 15.287670 -24.545395 3.344525 44.393502 52.046935 -23.133213 0.000000 0.000000 0.000000 -7.125000 0.000000 0.000000 18.497624 59.892416 -6.864382 0.000000 0.000000 0.000000 -164.238191 -62.577349 -89.365396 -20.082857 -30.741674 -5.573817 -40.811829 -2.390877 -21.796088 0.000000 0.000000 0.000000 7.125000 0.000000 0.000000 -7.356495 2.329399 -7.110386
21.360521 16.569097 -4.894694 -181.268688 -1.606762 -147.473007 0.000000 0.000000 0.000000 -21.640736 -10.773556 -11.645417 1.240776 7.063050 19.902345 -0.039604 -6.026944 -3.009978 0.291208 -3.469908 -9.590033 0.000000 0.000000 0.000000 14.199790 20.579340 -43.227030 -2.134626 -9.141015 26.237388 -0.282352 -4.385625 -12.625177 -0.164899 2.616292 -7.212246 -1.624456 -1.932887 -11.290233 2.098324 -3.020755 -5.300275 2.722927 -1.716062 0.982650 -6.565540 0.711392 -2.585526 3.925058 2.053978 -12.005173 2.403139 1.490928 -3.586659 0.000000 0.000000 0.000000 161.914660 -57.254759 93.217543 14.600755 -23.586655 3.064548 44.484437 53.252529 -21.964952 0.000000 0.000000 0.000000 -7.125000 0.000000 0.000000 18.389276 58.502298 -6.206681 0.000000 0.000000 0.000000 -166.905760 -61.651364 -93.128084 -19.340356 -29.839336 -5.199198 -40.946741 -0.670086 -22.178216 0.000000 0.000000 0.000000 7.125000 0.000000 0.000000 -7.355105 1.827311 -7.176832
21.361694 16.554693 -4.928781 -181.258294 -1.118138 -147.090781 0.000000 0.000000 0.000000 -21.812597 -11.076098 -11.597310 1.206366 6.968190 19.621153 -0.018115 -5.459305 -3.239274 0.346718 -3.783246 -10.467568 0.000000 0.000000 0.000000 14.166627 20.517612 -43.928800 -2.221150 -9.312318 26.777227 -0.338929 -3.551457 -12.886484 -0.163893 2.608088 -7.189353 -1.649112 -1.868132 -10.881509 1.881780 -2.908405 -5.231852 2.540100 -1.650180 0.815873 -7.198320 0.513539 -2.974624 4.907904 1.948190 -12.111085 2.866008 1.457776 -3.577388 0.000000 0.000000 0.000000 163.716647 -56.300299 96.913750 13.977624 -22.702706 2.819556 44.352957 56.485577 -23.087958 0.000000 0.000000 0.000000 -7.125000 0.000000 0.000000 18.433614 59.825852 -6.810662 0.000000 0.000000 0.000000 -167.942450 -60.668937 -94.832735 -18.968713 -29.379673 -5.015537 -41.377241 -1.583773 -22.220220 0.000000 0.000000 0.000000 7.125000 0.000000 0.000000 -7.601539 1.634932 -7.447890
